# xmcd
#
# Track frame offsets:
#	150
#	22240
#	47919
#	81822
#	96937
#
# Disc length: 1518 seconds
#
# Revision: 0
# Processed by: cddbd v1.5PL3 Copyright (c) Steve Scherf et al.
# Submitted via: dBpowerAMP V4.0
#
DISCID=3c05ec05
DTITLE=Jimmie Bratcher - as the story goes
DYEAR=2003
DGENRE=Christian Rock
TTITLE0=Live Today
TTITLE1=Something Better
TTITLE2=As The Story Goes
TTITLE3=Doctor, Doctor
TTITLE4=Can't Get Over It
EXTD=Christian Blues/Rock
EXTT0=
EXTT1=
EXTT2=
EXTT3=
EXTT4=
PLAYORDER=
